<?xml version="1.0" standalone="no"?>
<!DOCTYPE svg PUBLIC "-//W3C//DTD SVG 20010904//EN"
 "http://www.w3.org/TR/2001/REC-SVG-20010904/DTD/svg10.dtd">

<svg xmlns="http://www.w3.org/2000/svg" width="353" height="360" fill="none" viewBox="0 0 353 360">
  <path fill="#E8AE4A" d="m6.176 194.193-1.056.034-.196.035c-.818.144-1.725-.033-2.724-.531-.965-.504-1.595-1.59-1.889-3.258-.294-1.667.27-3.722 1.695-6.165 1.456-2.448 3.582-4.829 6.377-7.143 2.789-2.346 6.388-4.498 10.797-6.455 4.441-1.963 9.229-3.397 14.362-4.303 10.496-1.85 19.054-1.218 25.672 1.897 6.645 3.076 10.55 7.917 11.714 14.522.727 4.12.538 8.402-.567 12.844-1.105 4.443-2.886 8.685-5.342 12.726-2.463 4.008-5.502 7.899-9.119 11.672a81.169 81.169 0 0 1-11.689 10.001c-9.014 6.242-18 10.153-26.96 11.733-4.414.778-7.257.908-8.528.391-.466-.154-.951-.422-1.457-.805-.48-.422-.847-.694-1.105-.817-.69-.283-1.148-1.062-1.373-2.337-.23-1.308-.307-2.508-.23-3.601.364-3.671 3.424-12.033 9.18-25.084 5.784-13.09 10.677-23.68 14.679-31.769.273-.554 2.057-1.24 5.352-2.057 1.373-.242 2.339-.311 2.897-.207.557.104.882.418.975.941.086.49-.51 2.079-1.79 4.766-1.285 2.654-5.284 11.906-11.997 27.756-6.719 15.817-10.044 23.922-9.974 24.314.069.392 1.542.335 4.42-.172 2.91-.514 6.367-1.747 10.372-3.701 4.032-1.992 7.736-4.314 11.112-6.966a78.514 78.514 0 0 0 9.473-8.801c2.933-3.248 5.368-6.459 7.303-9.632 4.236-6.951 5.942-12.764 5.118-17.44-.825-4.676-3.667-8.271-8.527-10.786-4.827-2.52-10.952-3.126-18.375-1.817-5.003.882-9.58 2.549-13.734 5.001-4.153 2.452-6.948 4.479-8.385 6.081-1.437 1.602-2.115 2.632-2.034 3.089.046.262.265.358.658.289l2.04-.764c.294-.052.452-.013.476.118.022.131-.215.409-.713.834s-.893.865-1.183 1.321c-.264.417-1.007 1.172-2.23 2.264-1.23 1.06-2.395 1.721-3.495 1.982Zm93.507-5.463c.981-.173 2.056.093 3.226.797 1.202.698 1.964 1.963 2.287 3.794.317 1.798.095 4.265-.668 7.4-.767 3.103-1.998 6.354-3.691 9.754a75.876 75.876 0 0 1-5.87 9.734c-2.187 3.083-4.684 5.748-7.49 7.996-2.78 2.21-5.429 3.537-7.947 3.981-2.517.444-4.683.016-6.497-1.282-1.786-1.337-2.928-3.412-3.424-6.224-.501-2.845-.368-6.105.4-9.78.8-3.682 2.066-7.023 3.795-10.026a53.074 53.074 0 0 1 5.858-8.366c4.575-5.223 8.873-8.189 12.895-8.898 1.799-.317 3.233-.115 4.305.606.378.237.588.47.628.698l.052.295c.447-.146 1.16-.306 2.141-.479Zm-3.804 7.397-.343.061c-1.144.201-1.864-.532-2.158-2.199-2.248 1.205-4.507 3.02-6.777 5.443a36.806 36.806 0 0 0-5.786 8.202c-3.24 6.1-4.567 11.004-3.98 14.71.322 1.831 1.154 2.629 2.494 2.392 1.341-.236 3.18-1.471 5.517-3.703 2.337-2.233 4.51-5.212 6.516-8.938 2.04-3.731 3.486-6.902 4.34-9.514.882-2.65 1.248-4.401 1.098-5.251-.156-.883-.463-1.284-.92-1.203Zm52.705 6.637c.621-.109 1.081.299 1.379 1.224.298.925.536 1.894.715 2.908.179 1.014.204 1.734.077 2.161-.625 1.998-2.306 4.604-5.044 7.818-2.743 3.181-5.553 5.025-8.431 5.532-1.766.312-3.496.061-5.19-.753-1.689-.781-2.767-2.496-3.234-5.145-.467-2.649-.222-5.372.734-8.17-6.316 11.599-11.779 17.805-16.39 18.618-1.831.323-3.434-.069-4.809-1.175-1.342-1.112-2.135-2.355-2.377-3.728a16.963 16.963 0 0 1-.172-4.42c.127-1.573.299-2.986.517-4.238.25-1.258.647-2.828 1.192-4.711a188.412 188.412 0 0 1 1.296-4.123c.287-.86.749-2.155 1.388-3.886.666-1.77 1.514-4.128 2.546-7.074 1.064-2.952 1.974-5.153 2.73-6.601.783-1.486 1.649-2.313 2.597-2.481.943-.2 1.843.03 2.7.687.858.658 1.33 1.233 1.417 1.723.086.491-.62 2.891-2.119 7.201-4.41 12.848-6.445 20.236-6.105 22.165.086.491.31.704.669.641 1.57-.277 4.878-4.366 9.924-12.269 5.046-7.903 7.892-12.889 8.539-14.958.641-2.102 1.304-3.888 1.989-5.357.717-1.476 1.279-2.401 1.685-2.776 1.244-1.163 2.973-1.974 5.185-2.431.359-.064.64-.096.842-.098.202-.002.48.236.834.713s.557.862.608 1.157c-.132.967-1.011 3.634-2.635 8-1.591 4.36-2.471 6.825-2.641 7.394-2.451 8.659-3.464 14.198-3.037 16.618.242 1.373.886 1.967 1.933 1.783 1.85-.596 3.871-2.52 6.062-5.772a132.294 132.294 0 0 0 2.349-3.601c.797-1.219 1.295-1.931 1.495-2.134.194-.237.455-.384.782-.442Z"/>
  <path fill="#E8AE4A" d="M160.81 188.926c6.172-10.124 11.971-15.664 17.399-16.621 1.341-.237 2.509-.021 3.503.646 1.021.629 1.644 1.582 1.869 2.857.225 1.275-.313 3.578-1.614 6.909-1.273 3.293-2.497 6.105-3.671 8.436-.633 1.19-1.472 1.878-2.519 2.062-1.013.179-1.881-.056-2.602-.704-.689-.654-1.122-1.488-1.301-2.501-.398-2.257.362-5.02 2.281-8.292l-.116-.081c-1.062.289-3.368 2.887-6.919 7.795-3.519 4.902-6.491 9.27-8.917 13.103-2.399 3.794-4.933 8.354-7.602 13.68-.765 1.585-1.508 2.441-2.227 2.567-.687.121-1.64.07-2.859-.153-1.258-.25-2.019-.453-2.282-.609-.297-.15-.485-.454-.566-.912-.08-.458-.042-1.004.116-1.638.152-.668.49-1.621 1.013-2.859.491-1.233 1.22-3.216 2.188-5.949 1-2.739 2.561-6.891 4.681-12.458 2.12-5.566 3.383-8.924 3.787-10.074.862-2.377 1.599-4.125 2.211-5.245 1.142-2.123 3.463-3.493 6.962-4.11.785-.138 1.263.283 1.436 1.264.271 1.537-.641 4.681-2.736 9.434l-1.515 3.453Zm54.644-20.508c2.485-.438 3.877.193 4.177 1.893.162.916.067 1.623-.283 2.123-.35.5-1.015 2.084-1.994 4.752-.953 2.629-1.947 5.974-2.985 10.034-1.01 4.022-1.527 7.4-1.55 10.135-.041.344-.009.811.095 1.399.317 1.799.966 2.611 1.947 2.438.981-.172 2.061-.835 3.24-1.987a28.006 28.006 0 0 0 3.053-3.623 96.972 96.972 0 0 0 2.461-3.823c.818-1.29 1.311-2.034 1.478-2.232.167-.199.447-.332.84-.401.621-.11 1.08.298 1.378 1.223.298.925.537 1.895.716 2.908.178 1.014.204 1.734.077 2.161-.619 2.031-2.317 4.64-5.093 7.827-2.743 3.181-5.439 5.005-8.088 5.472-2.616.461-4.686 0-6.211-1.383-1.525-1.383-2.458-3.039-2.798-4.969-.346-1.961-.322-3.736.073-5.323-2.092 4.01-4.687 7.553-7.786 10.628-3.066 3.069-5.711 4.8-7.935 5.192-2.223.392-4.156.042-5.799-1.051-2.092-1.35-3.398-3.497-3.917-6.44-.524-2.975-.395-6.066.388-9.273a32.594 32.594 0 0 1 3.804-9.116 52.335 52.335 0 0 1 5.919-8.023c4.678-5.208 9.306-8.215 13.884-9.022 1.766-.312 3.256-.271 4.472.121 1.215.393 2.048 1.005 2.498 1.836.577-1.316 1.102-2.167 1.573-2.553.498-.425 1.287-.733 2.366-.923Zm-5.564 6.594c-5.591.986-10.831 5.113-15.719 12.381-1.734 2.598-3.226 5.609-4.476 9.033-1.218 3.417-1.727 5.698-1.525 6.843.202 1.144.63 1.659 1.284 1.544.915-.162 3.149-2.41 6.7-6.745 3.546-4.367 5.855-7.522 6.929-9.465 1.169-2.162 3.439-6.692 6.807-13.591Z"/>
  <path fill="#E8AE4A" d="M274.149 120.695c.622-.11 1.147 0 1.576.329.428.329.68.706.755 1.131.069.392-.125 1.202-.583 2.429-.431 1.189-1.465 3.832-3.102 7.931a966.966 966.966 0 0 0-3.825 9.575c-5.295 13.375-9.316 24.603-12.064 33.685-2.748 9.082-3.969 14.489-3.663 16.222l.069.393c.236 1.34.845 1.924 1.826 1.751.981-.173 2.077-.838 3.289-1.996 1.245-1.163 2.298-2.361 3.16-3.591a150.654 150.654 0 0 0 2.568-3.791c.877-1.335 1.413-2.12 1.607-2.357.195-.237.472-.387.831-.45.556-.098.979.198 1.27.889.284.658.539 1.624.764 2.899.219 1.243.265 2.078.138 2.505-.625 1.998-2.323 4.607-5.093 7.826-2.744 3.181-5.554 5.025-8.431 5.533-4.905.865-7.724-.779-8.456-4.932-.455-2.583-.071-6.141 1.153-10.672-2.044 3.901-4.225 7.303-6.545 10.207-4.317 5.346-8.356 8.351-12.116 9.014-2.093.369-3.776-.093-5.049-1.386-1.24-1.298-2.103-3.321-2.587-6.067-.49-2.78.004-6.289 1.482-10.528a44.955 44.955 0 0 1 6.21-11.816 47.744 47.744 0 0 1 9.375-9.644c3.555-2.785 6.984-4.468 10.286-5.05 1.047-.185 2.385.237 4.016 1.264.683-1.672 1.902-4.988 3.657-9.95 5.63-14.918 9.474-24.092 11.533-27.523 1.056-2.04 3.039-3.317 5.949-3.83Zm-23.318 46.441c-4.524 1.877-8.519 4.84-11.986 8.89-3.466 4.05-5.89 8.085-7.272 12.105-1.387 3.987-1.986 6.52-1.796 7.599.191 1.079.515 1.578.973 1.498 1.961-.346 6.045-5.584 12.249-15.714 3.097-4.996 5.708-9.789 7.832-14.378Z"/>
  <path fill="#E8AE4A" d="M293.619 154.534c.981-.173 2.056.093 3.226.797 1.202.698 1.964 1.963 2.287 3.794.317 1.798.095 4.265-.668 7.4-.767 3.102-1.998 6.354-3.691 9.754a75.81 75.81 0 0 1-5.87 9.734c-2.187 3.083-4.684 5.748-7.491 7.996-2.779 2.21-5.428 3.537-7.946 3.981-2.517.443-4.683.016-6.497-1.282-1.786-1.337-2.928-3.412-3.423-6.224-.502-2.845-.369-6.105.399-9.78.801-3.682 2.066-7.024 3.795-10.026a53.074 53.074 0 0 1 5.858-8.366c4.575-5.223 8.873-8.189 12.895-8.898 1.798-.318 3.233-.115 4.305.606.378.237.588.469.628.698l.052.295c.447-.147 1.16-.306 2.141-.479Zm-3.804 7.397-.343.06c-1.144.202-1.864-.531-2.158-2.198-2.248 1.205-4.508 3.02-6.777 5.443a36.823 36.823 0 0 0-5.786 8.201c-3.24 6.101-4.567 11.005-3.981 14.711.323 1.831 1.155 2.629 2.495 2.392 1.341-.236 3.18-1.471 5.517-3.704 2.338-2.232 4.509-5.211 6.516-8.937 2.039-3.731 3.486-6.902 4.341-9.514.881-2.651 1.247-4.401 1.097-5.251-.156-.883-.463-1.284-.921-1.203Zm30.262-41.192c1.733-.306 3.076-.054 4.028.756.985.804 1.612 1.975 1.883 3.511.271 1.537-.019 3.139-.872 4.807-.819 1.662-2.18 3.503-4.083 5.524-1.875 1.983-3.336 3.067-4.383 3.251-1.046.185-1.816.118-2.311-.199-.461-.323-.812-.497-1.053-.522-.24-.026-.404-.283-.49-.774-.092-.523-.025-.906.202-1.148.227-.242.731-1.208 1.512-2.896.808-1.728 1.267-2.854 1.377-3.379-.61-.398-1.01-1.137-1.2-2.216-.196-1.111.212-2.431 1.224-3.958 1.045-1.533 2.433-2.452 4.166-2.757Zm2.289 57.148.089.794c.144.817.579 1.465 1.304 1.944.725.479 1.349.673 1.872.58 3.924-.691 7.287-1.891 10.087-3.599 2.834-1.713 4.147-3.158 3.939-4.336-.098-.555-.737-.932-1.918-1.128-1.154-.235-3.091-.416-5.811-.543-2.693-.166-4.656-.308-5.891-.428-1.241-.152-2.23-.315-2.969-.488a11.097 11.097 0 0 1-2.325-.854c-1.727-.808-2.778-2.275-3.153-4.4-.381-2.159.029-4.422 1.23-6.792 1.227-2.408 2.902-4.574 5.024-6.499a52.56 52.56 0 0 1 7-5.331c5.03-3.213 9.393-5.146 13.087-5.797 3.63-.64 6.008-.25 7.135 1.169.36.51.6 1.108.721 1.795l.061.343c.305 1.733.169 3.157-.41 4.27-.547 1.108-1.552 2.195-3.016 3.263-1.431 1.061-2.621 1.676-3.569 1.843-.916.161-1.516.2-1.8.115a2.152 2.152 0 0 1-.675-.387 1.374 1.374 0 0 0-.725-.378c-.246-.057-.403-.283-.473-.675-.069-.392.026-.814.283-1.264.252-.482.403-.964.453-1.445-2.14.479-4.307 1.383-6.5 2.714-2.199 1.298-4.05 2.653-5.554 4.064-1.472 1.406-2.674 2.714-3.607 3.924-.933 1.209-1.357 2.059-1.27 2.55.081.458.899.701 2.455.73 7.005.147 11.657.524 13.955 1.13 2.298.606 3.966 1.459 5.002 2.557 1.037 1.099 1.645 2.155 1.823 3.168.369 2.093-.116 4.218-1.455 6.376-1.339 2.158-3.13 4.042-5.375 5.651-4.809 3.512-9.176 5.613-13.1 6.305-3.891.686-6.695.557-8.412-.387-1.68-.918-2.663-2.195-2.951-3.829-.289-1.635-.145-3.212.43-4.729.602-1.556 1.557-2.449 2.865-2.68 1.308-.231 2.023-.003 2.144.684Zm-297.251-85L176 5.773l150.885 87.114V93h5v-3L176 0 20.115 90v57h5V92.887Zm0 174.113h-5v3L176 360l155.885-90v-57h-5v54.113L176 354.226 25.115 267.113V267Z"/>
  <path fill="#E8AE4A" d="M113.195 86.602v-.334c0-.592.188-1.079.563-1.46.375-.38.879-.57 1.512-.57.656 0 1.168.19 1.538.57.369.381.553.868.553 1.46v.334c0 .585-.184 1.066-.553 1.441-.37.37-.879.554-1.53.554-.638 0-1.145-.185-1.52-.554-.375-.375-.563-.856-.563-1.441Zm21.641.817h-2.619l-.009-1.863h2.232c.352 0 .639-.059.862-.176.228-.123.395-.302.501-.536.111-.24.167-.53.167-.87 0-.393-.05-.706-.15-.94a.992.992 0 0 0-.483-.528c-.223-.112-.513-.167-.87-.167h-1.371V93h-2.576V80.203h3.947c.638 0 1.21.07 1.713.211.504.14.932.355 1.284.642.351.287.618.65.799 1.09.188.439.282.957.282 1.555 0 .528-.106 1.014-.317 1.46a2.57 2.57 0 0 1-.993 1.089c-.445.281-1.028.44-1.749.475l-.65.694ZM134.748 93h-3.261l1.028-2.127h2.233c.34 0 .615-.073.826-.22.211-.146.363-.343.457-.589.094-.251.141-.539.141-.86 0-.364-.044-.68-.132-.95a1.144 1.144 0 0 0-.413-.615c-.194-.147-.454-.22-.782-.22h-2.215l.017-1.863h2.69l.606.738c.686-.023 1.234.108 1.644.395.41.282.703.65.879 1.108.181.451.272.931.272 1.441 0 .82-.155 1.512-.466 2.075a2.964 2.964 0 0 1-1.344 1.265c-.592.281-1.319.422-2.18.422Zm11.412-10.512L143.409 93h-2.716l3.999-12.797h1.696l-.228 2.285ZM148.33 93l-2.768-10.512-.255-2.285h1.723L151.064 93h-2.734Zm.097-4.772v2.135h-5.774v-2.135h5.774Zm4.767-8.025h4.105c.855 0 1.585.147 2.188.44a3.106 3.106 0 0 1 1.389 1.3c.322.575.483 1.284.483 2.127 0 .692-.093 1.284-.281 1.776a3.275 3.275 0 0 1-.8 1.221c-.345.323-.758.58-1.239.774l-.782.466h-3.331l-.009-2.136h2.312c.351 0 .641-.076.87-.229.234-.158.407-.377.518-.659.117-.287.176-.62.176-1.002 0-.404-.053-.75-.158-1.037a1.278 1.278 0 0 0-.484-.668c-.216-.158-.501-.237-.852-.237h-1.529V93h-2.576V80.203ZM159.004 93l-2.347-5.704 2.698-.009 2.4 5.59V93h-2.751Zm9.364-5.581h-2.619l-.009-1.863h2.232c.352 0 .639-.059.862-.176.228-.123.395-.302.501-.536.111-.24.167-.53.167-.87 0-.393-.05-.706-.15-.94a.992.992 0 0 0-.483-.528c-.223-.112-.513-.167-.87-.167h-1.371V93h-2.576V80.203h3.947c.638 0 1.21.07 1.714.211.503.14.931.355 1.283.642.351.287.618.65.8 1.09.187.439.281.957.281 1.555 0 .528-.106 1.014-.317 1.46a2.57 2.57 0 0 1-.993 1.089c-.445.281-1.028.44-1.749.475l-.65.694ZM168.28 93h-3.261l1.028-2.127h2.233c.34 0 .615-.073.826-.22.211-.146.363-.343.457-.589.094-.251.141-.539.141-.86 0-.364-.044-.68-.132-.95a1.144 1.144 0 0 0-.413-.615c-.194-.147-.454-.22-.782-.22h-2.215l.017-1.863h2.69l.606.738c.686-.023 1.234.108 1.644.395.41.282.703.65.879 1.108.181.451.272.931.272 1.441 0 .82-.155 1.512-.466 2.075a2.964 2.964 0 0 1-1.344 1.265c-.592.281-1.319.422-2.18.422Zm14.119-2.127V93h-5.564v-2.127h5.564Zm-4.764-10.67V93h-2.575V80.203h2.575Zm4.017 5.186v2.065h-4.817V85.39h4.817Zm.729-5.186v2.136h-5.546v-2.136h5.546Zm7.052 2.285L186.682 93h-2.715l3.999-12.797h1.696l-.229 2.285ZM191.604 93l-2.768-10.512-.255-2.285h1.723L194.338 93h-2.734Zm.097-4.772v2.135h-5.774v-2.135h5.774Zm4.767-8.025h4.105c.855 0 1.585.147 2.188.44a3.106 3.106 0 0 1 1.389 1.3c.322.575.483 1.284.483 2.127 0 .692-.094 1.284-.281 1.776a3.287 3.287 0 0 1-.8 1.221c-.346.323-.759.58-1.239.774l-.782.466H198.2l-.009-2.136h2.311c.352 0 .642-.076.87-.229a1.38 1.38 0 0 0 .519-.659c.117-.287.176-.62.176-1.002 0-.404-.053-.75-.158-1.037a1.278 1.278 0 0 0-.484-.668c-.217-.158-.501-.237-.852-.237h-1.53V93h-2.575V80.203ZM202.278 93l-2.347-5.704 2.698-.009 2.4 5.59V93h-2.751Zm7.72-12.797V93h-2.558V80.203h2.558Zm7.887 2.285L215.134 93h-2.715l3.999-12.797h1.696l-.229 2.285ZM220.056 93l-2.768-10.512-.255-2.285h1.722L222.79 93h-2.734Zm.097-4.772v2.135h-5.774v-2.135h5.774Zm15.013-1.626v-.334c0-.592.188-1.079.563-1.46.375-.38.879-.57 1.512-.57.656 0 1.169.19 1.538.57.369.381.553.868.553 1.46v.334c0 .585-.184 1.066-.553 1.441-.369.37-.879.554-1.53.554-.638 0-1.145-.185-1.52-.554-.375-.375-.563-.856-.563-1.441Zm-133.971 184v-.334c0-.592.188-1.079.563-1.459.375-.381.879-.572 1.512-.572.656 0 1.168.191 1.538.572.369.38.553.867.553 1.459v.334c0 .586-.184 1.066-.553 1.441-.37.369-.879.554-1.53.554-.638 0-1.145-.185-1.52-.554-.375-.375-.563-.855-.563-1.441ZM125.91 277h-2.259l.018-2.127h2.241c.621 0 1.105-.111 1.45-.334.346-.223.589-.574.73-1.055.146-.48.22-1.11.22-1.889V269.6a8.4 8.4 0 0 0-.115-1.503c-.076-.416-.205-.75-.386-1.002a1.608 1.608 0 0 0-.73-.572c-.305-.123-.683-.184-1.134-.184h-2.338v-2.136h2.338c.739 0 1.41.12 2.013.36a4.272 4.272 0 0 1 1.556 1.055c.433.457.767 1.023 1.002 1.696.234.674.351 1.442.351 2.303v1.978c0 .867-.117 1.634-.351 2.302a4.76 4.76 0 0 1-1.002 1.697 4.233 4.233 0 0 1-1.556 1.046c-.609.24-1.292.36-2.048.36Zm-.764-12.797V277h-2.576v-12.797h2.576Zm17.191 10.67V277h-5.564v-2.127h5.564Zm-4.764-10.67V277h-2.575v-12.797h2.575Zm4.017 5.186v2.065h-4.817v-2.065h4.817Zm.729-5.186v2.136h-5.546v-2.136h5.546Zm9.185 9.431c0-.229-.021-.437-.062-.624a1.187 1.187 0 0 0-.263-.519 2.337 2.337 0 0 0-.572-.474 6.56 6.56 0 0 0-.966-.493c-.475-.199-.935-.41-1.38-.632a6.51 6.51 0 0 1-1.204-.791 3.436 3.436 0 0 1-.853-1.055c-.205-.41-.308-.891-.308-1.442 0-.539.097-1.028.291-1.467.199-.44.48-.815.843-1.125.364-.317.788-.56 1.275-.73a5.008 5.008 0 0 1 1.643-.255c.821 0 1.53.17 2.127.51a3.56 3.56 0 0 1 1.398 1.398c.334.591.501 1.271.501 2.039h-2.567c0-.364-.052-.683-.158-.958a1.334 1.334 0 0 0-.483-.66c-.223-.158-.51-.237-.862-.237-.328 0-.6.068-.817.202a1.212 1.212 0 0 0-.475.536 1.845 1.845 0 0 0-.149.756c0 .211.05.402.149.572.106.164.249.313.431.448.182.129.395.255.642.378.252.123.527.243.826.36.58.229 1.093.481 1.538.756.445.269.817.574 1.116.914.299.334.524.712.677 1.134.152.422.228.902.228 1.441 0 .533-.093 1.02-.281 1.459a3.109 3.109 0 0 1-.8 1.125 3.694 3.694 0 0 1-1.274.721 5.038 5.038 0 0 1-1.652.255 5.621 5.621 0 0 1-1.679-.246 4.105 4.105 0 0 1-1.398-.765 3.592 3.592 0 0 1-.94-1.31c-.229-.533-.343-1.163-.343-1.889h2.575c0 .387.038.718.115.993.076.27.193.486.351.65.158.159.352.279.58.361.235.076.501.114.8.114.34 0 .609-.064.809-.193.205-.129.351-.302.439-.519a1.95 1.95 0 0 0 .132-.738ZM161.4 277h-2.258l.017-2.127h2.241c.621 0 1.105-.111 1.451-.334.345-.223.588-.574.729-1.055.147-.48.22-1.11.22-1.889V269.6a8.41 8.41 0 0 0-.114-1.503c-.077-.416-.206-.75-.387-1.002a1.608 1.608 0 0 0-.73-.572c-.304-.123-.682-.184-1.133-.184h-2.338v-2.136h2.338c.738 0 1.409.12 2.012.36a4.272 4.272 0 0 1 1.556 1.055c.434.457.767 1.023 1.002 1.696.234.674.351 1.442.351 2.303v1.978c0 .867-.117 1.634-.351 2.302-.235.668-.568 1.234-1.002 1.697a4.225 4.225 0 0 1-1.556 1.046c-.609.24-1.292.36-2.048.36Zm-.764-12.797V277h-2.575v-12.797h2.575Zm17.191 10.67V277h-5.563v-2.127h5.563Zm-4.764-10.67V277h-2.575v-12.797h2.575Zm4.017 5.186v2.065h-4.816v-2.065h4.816Zm.73-5.186v2.136h-5.546v-2.136h5.546Zm17.507 10.749V277h-7.541v-1.749l3.463-4.403c.334-.463.595-.868.782-1.213.188-.352.323-.665.405-.941.082-.281.123-.545.123-.791 0-.381-.044-.706-.132-.975-.088-.276-.22-.487-.396-.633a.911.911 0 0 0-.632-.229c-.305 0-.557.094-.756.282-.199.187-.349.445-.448.773a3.928 3.928 0 0 0-.141 1.099h-2.47c0-.768.156-1.471.466-2.11a3.808 3.808 0 0 1 1.327-1.52c.574-.381 1.263-.571 2.066-.571.785 0 1.441.146 1.968.439a2.83 2.83 0 0 1 1.204 1.257c.276.539.414 1.183.414 1.933 0 .428-.056.844-.167 1.248a6.4 6.4 0 0 1-.475 1.196 9.621 9.621 0 0 1-.756 1.204c-.299.41-.636.835-1.011 1.274l-1.67 2.382h4.377Zm11.242-5.475v2.223c0 .961-.091 1.787-.273 2.479-.181.691-.436 1.259-.765 1.705a3.085 3.085 0 0 1-1.168.975 3.49 3.49 0 0 1-1.495.317c-.433 0-.84-.068-1.221-.202a3.109 3.109 0 0 1-1.037-.616 3.815 3.815 0 0 1-.791-1.063 6.064 6.064 0 0 1-.501-1.538 10.703 10.703 0 0 1-.176-2.057v-2.223c0-.961.091-1.785.272-2.47.188-.692.446-1.257.774-1.696.328-.44.718-.762 1.169-.967a3.542 3.542 0 0 1 1.503-.317c.427 0 .832.068 1.213.202.386.129.729.332 1.028.607.305.275.565.63.782 1.063.223.428.393.941.51 1.539.117.591.176 1.271.176 2.039Zm-2.47 2.566v-2.927c0-.451-.021-.846-.062-1.186a5.46 5.46 0 0 0-.149-.862 1.792 1.792 0 0 0-.255-.571.98.98 0 0 0-.352-.316.873.873 0 0 0-.43-.106.877.877 0 0 0-.51.158c-.152.106-.284.279-.395.519-.112.234-.197.548-.255.94-.053.387-.079.862-.079 1.424v2.927c0 .451.017.85.052 1.195.041.346.097.642.167.888.076.24.161.434.255.58.1.147.214.255.343.325a.997.997 0 0 0 .439.097.877.877 0 0 0 .51-.158c.158-.112.29-.287.396-.528.105-.24.184-.556.237-.949.059-.398.088-.882.088-1.45Zm13.939 2.909V277h-7.541v-1.749l3.463-4.403c.334-.463.595-.868.782-1.213.188-.352.323-.665.405-.941.082-.281.123-.545.123-.791 0-.381-.044-.706-.132-.975-.088-.276-.22-.487-.396-.633a.911.911 0 0 0-.632-.229c-.305 0-.557.094-.756.282-.199.187-.349.445-.448.773a3.928 3.928 0 0 0-.141 1.099h-2.47c0-.768.155-1.471.466-2.11a3.808 3.808 0 0 1 1.327-1.52c.574-.381 1.263-.571 2.066-.571.785 0 1.441.146 1.968.439a2.83 2.83 0 0 1 1.204 1.257c.276.539.414 1.183.414 1.933 0 .428-.056.844-.167 1.248a6.4 6.4 0 0 1-.475 1.196 9.621 9.621 0 0 1-.756 1.204c-.299.41-.636.835-1.011 1.274l-1.67 2.382h4.377Zm6.03-5.484h1.195c.31 0 .565-.071.765-.211.199-.147.345-.352.439-.615a2.75 2.75 0 0 0 .141-.923c0-.328-.044-.615-.132-.862a1.246 1.246 0 0 0-.404-.58 1.093 1.093 0 0 0-.686-.211c-.211 0-.407.059-.589.176a1.26 1.26 0 0 0-.439.501 1.689 1.689 0 0 0-.159.765h-2.478c0-.703.161-1.316.483-1.837a3.39 3.39 0 0 1 1.301-1.222 3.764 3.764 0 0 1 1.811-.439c.744 0 1.397.14 1.96.422a3.035 3.035 0 0 1 1.318 1.23c.316.539.475 1.207.475 2.004 0 .41-.079.806-.238 1.187-.152.38-.375.723-.668 1.028-.293.299-.65.536-1.072.712-.416.176-.891.263-1.424.263h-1.599v-1.388Zm0 1.995v-1.345h1.599c.598 0 1.119.079 1.565.237.451.153.823.375 1.116.668.299.293.521.642.668 1.046.146.405.22.85.22 1.336 0 .598-.1 1.131-.299 1.6a3.32 3.32 0 0 1-.835 1.186 3.711 3.711 0 0 1-1.248.739c-.475.164-.99.246-1.547.246-.463 0-.917-.073-1.362-.22a3.46 3.46 0 0 1-1.187-.677 3.212 3.212 0 0 1-.835-1.151c-.205-.463-.308-1.011-.308-1.644h2.461c0 .317.056.601.167.853.112.246.264.439.457.58.2.141.422.211.668.211.288 0 .537-.073.747-.22.211-.146.373-.351.484-.615.111-.264.167-.571.167-.923 0-.451-.059-.814-.176-1.09-.117-.281-.287-.486-.51-.615-.222-.135-.492-.202-.808-.202h-1.204Zm22.297-.861v-.334c0-.592.188-1.079.563-1.459.375-.381.879-.572 1.512-.572.656 0 1.169.191 1.538.572.369.38.553.867.553 1.459v.334c0 .586-.184 1.066-.553 1.441-.369.369-.879.554-1.53.554-.638 0-1.145-.185-1.52-.554-.375-.375-.563-.855-.563-1.441Z"/>
</svg>
